<?xml version="1.0" ?><!DOCTYPE svg  PUBLIC '-//W3C//DTD SVG 20010904//EN'  'http://www.w3.org/TR/2001/REC-SVG-20010904/DTD/svg10.dtd'><svg height="512.000000pt" preserveAspectRatio="xMidYMid meet" version="1.0" viewBox="0 0 512.000000 512.000000" width="512.000000pt" xmlns="http://www.w3.org/2000/svg"><g fill="#000000" stroke="none" transform="translate(0.000000,512.000000) scale(0.100000,-0.100000)"><path d="M2285 4898 c-311 -35 -683 -165 -955 -333 -220 -137 -472 -361 -622 -555 -256 -331 -417 -712 -480 -1135 -20 -136 -17 -512 5 -655 103 -665 471 -1245 1027 -1616 287 -191 623 -320 966 -371 164 -24 504 -24 668 0 411 61 815 237 1136 494 459 368 764 897 857 1485 25 159 25 537 0 696 -83 524 -329 995 -708 1356 -370 352 -861 581 -1361 635 -114 13 -419 12 -533 -1z m538 -1409 c144 -61 361 -153 482 -203 121 -51 243 -103 270 -116 28 -13 165 -71 305 -130 451 -190 502 -213 488 -221 -7 -5 -119 -70 -248 -146 l-235 -139 -3 -252 c-2 -213 0 -252 12 -252 21 0 66 -58 66 -85 0 -28 -21 -35 -112 -35 l-68 0 0 34 c0 24 9 43 30 66 l30 32 0 233 0 233 -179 -101 -179 -102 -4 -150 -3 -150 -42 -85 c-50 -102 -48 -99 -143 -176 -139 -113 -236 -152 -485 -195 -202 -34 -285 -36 -454 -8 -111 18 -309 77 -374 110 -51 27 -198 143 -231 183 -70 86 -80 122 -86 305 l-5 165 -453 257 c-249 142 -453 261 -453 265 0 4 87 44 193 89 378 161 858 365 1198 509 190 80 359 153 375 160 17 8 34 15 38 15 5 1 126 -49 270 -110z m1164 -1720 c22 -59 23 -63 6 -82 -30 -32 -69 -47 -128 -47 -62 0 -106 19 -125 54 -8 17 -7 30 6 61 9 22 20 49 24 60 7 18 16 20 100 19 l93 -2 24 -63z"/><path d="M826 2831 c5 -5 351 -204 769 -441 418 -238 806 -459 863 -491 74 -42 103 -54 100 -42 -4 19 -1692 982 -1722 983 -13 0 -16 -3 -10 -9z"/></g></svg>